<?xml version="1.0" encoding="UTF-8" standalone="no"?>
<svg width="30px" height="29px" viewBox="0 0 30 29" version="1.1" xmlns="http://www.w3.org/2000/svg" xmlns:xlink="http://www.w3.org/1999/xlink" xmlns:sketch="http://www.bohemiancoding.com/sketch/ns">
    <!-- Generator: Sketch 3.5.1 (25234) - http://www.bohemiancoding.com/sketch -->
    <title>addyourself</title>
    <desc>Created with Sketch.</desc>
    <defs></defs>
    <g id="Page-1" stroke="none" stroke-width="1" fill="none" fill-rule="evenodd" sketch:type="MSPage">
        <g id="driving-picking-up" sketch:type="MSArtboardGroup" transform="translate(-284.000000, -336.000000)" fill="#FFFFFF">
            <path d="M297.15,348.612963 L297.15,338.462963 C297.15,337.165094 298.202131,336.112963 299.5,336.112963 C300.797869,336.112963 301.85,337.165094 301.85,338.462963 L301.85,348.612963 L311.091874,348.612963 C312.389743,348.612963 313.441874,349.665094 313.441874,350.962963 C313.441874,352.260832 312.389743,353.312963 311.091874,353.312963 L301.85,353.312963 L301.85,362.554837 C301.85,363.852706 300.797869,364.904837 299.5,364.904837 C298.202131,364.904837 297.15,363.852706 297.15,362.554837 L297.15,353.312963 L287,353.312963 C285.702131,353.312963 284.65,352.260832 284.65,350.962963 C284.65,349.665094 285.702131,348.612963 287,348.612963 L297.15,348.612963 Z" id="addyourself" sketch:type="MSShapeGroup"></path>
        </g>
    </g>
</svg>