<?xml version="1.0" encoding="UTF-8" standalone="no"?>
<svg width="37px" height="37px" viewBox="0 0 37 37" version="1.1" xmlns="http://www.w3.org/2000/svg" xmlns:xlink="http://www.w3.org/1999/xlink" xmlns:sketch="http://www.bohemiancoding.com/sketch/ns">
    <!-- Generator: Sketch 3.5.1 (25234) - http://www.bohemiancoding.com/sketch -->
    <title>drive-white</title>
    <desc>Created with Sketch.</desc>
    <defs></defs>
    <g id="Page-1" stroke="none" stroke-width="1" fill="none" fill-rule="evenodd" sketch:type="MSPage">
        <g id="drive-white" sketch:type="MSArtboardGroup" fill="#F2F5FA">
            <path d="M32.8218734,13.8073587 C32.6702689,13.6219079 32.4440529,13.5136619 32.2067245,13.5136619 L29.1897169,13.5136619 C28.4451883,11.5445402 27.4752374,9.61521485 26.3727319,8.88694229 C22.5588088,6.37101924 12.4425862,6.37101924 8.62866312,8.88694229 C7.52536383,9.61601078 6.55938165,11.5477239 5.81088436,13.5136619 L2.79387675,13.5136619 C2.55416712,13.5136619 2.32874482,13.6219079 2.17872786,13.8073587 C2.02791717,13.9920136 1.96759289,14.236363 2.0168048,14.4711612 L2.4636807,16.6424482 C2.53987979,17.0125539 2.86531339,17.2768015 3.24075264,17.2768015 L4.13450444,17.2768015 C3.27170852,18.274893 2.85340728,19.5316607 2.8478511,20.7892242 C2.84229492,22.3428724 3.43045662,23.7468864 4.50597499,24.7402024 C4.5178811,24.7505495 4.52978721,24.7577128 4.54089957,24.7680598 L4.54089957,27.8061105 C4.54089957,28.4643416 5.07429319,29 5.73151031,29 L8.51436449,29 C9.17158162,29 9.70497523,28.4643416 9.70497523,27.8061105 L9.70497523,26.5851596 L25.2948323,26.5851596 L25.2948323,27.8061105 C25.2948323,28.4643416 25.8282259,29 26.485443,29 L29.2682972,29 C29.9239268,29 30.4589079,28.4643416 30.4589079,27.8061105 L30.4589079,24.8277543 C31.6003068,23.7795194 32.1456065,22.3373009 32.1527501,20.8974702 C32.1575126,19.5969266 31.7201616,18.2939953 30.8065663,17.2752096 L31.7598486,17.2752096 C32.1368753,17.2752096 32.4623089,17.0109621 32.5369205,16.6400604 L32.9845902,14.4695694 C33.0306271,14.236363 32.9726841,13.9936055 32.8218734,13.8073587 L32.8218734,13.8073587 Z M9.93595371,10.8807377 C12.9759798,8.87420747 22.0238277,8.87420747 25.0622663,10.8807377 C25.6528092,11.2691497 26.4124189,12.8395123 27.1085293,14.7624703 L7.8912782,14.7624703 C8.58580113,12.8403082 9.34541078,11.2707416 9.93595371,10.8807377 L9.93595371,10.8807377 Z M6.37523386,21.0884925 C6.37523386,19.7911327 7.42455879,18.7405099 8.71756205,18.7405099 C10.0121528,18.7405099 11.0598903,19.7911327 11.0598903,21.0884925 C11.0598903,22.3858524 10.0121528,23.4372711 8.71756205,23.4372711 C7.42455879,23.4372711 6.37523386,22.3858524 6.37523386,21.0884925 L6.37523386,21.0884925 Z M26.3132013,23.4372711 C25.0201981,23.4372711 23.9708731,22.3858524 23.9708731,21.0884925 C23.9708731,19.7911327 25.0201981,18.7405099 26.3132013,18.7405099 C27.6077921,18.7405099 28.6555295,19.7911327 28.6555295,21.0884925 C28.6555295,22.3858524 27.6062046,23.4372711 26.3132013,23.4372711 L26.3132013,23.4372711 Z" id="Shape-Copy" sketch:type="MSShapeGroup"></path>
        </g>
    </g>
</svg>