<?xml version="1.0" encoding="UTF-8" standalone="no"?>
<svg width="60px" height="60px" viewBox="0 0 60 60" version="1.1" xmlns="http://www.w3.org/2000/svg" xmlns:xlink="http://www.w3.org/1999/xlink">
    <!-- Generator: Sketch 3.8.3 (29802) - http://www.bohemiancoding.com/sketch -->
    <title>email</title>
    <desc>Created with Sketch.</desc>
    <defs></defs>
    <g id="Page-1" stroke="none" stroke-width="1" fill="none" fill-rule="evenodd">
        <g id="email" fill="#0F78FF">
            <path d="M43.419498,25.522 C42.5875981,25.9461207 32.3689991,31.1668793 31.8595991,31.4262759 C31.3498992,31.6862586 30.9928992,31.7202586 30.4999993,31.7202586 C30.0073993,31.7202586 29.6503994,31.6862586 29.1406994,31.4262759 C28.6312995,31.1668793 18.4133005,25.9461207 17.5808006,25.522 C16.9952006,25.2239138 17.0000006,25.5735862 17.0000006,25.8438276 L17.0000006,36.594569 C17.0000006,37.2089138 17.8376005,38 18.4877005,38 L42.5125981,38 C43.162398,38 43.9999979,37.2089138 43.9999979,36.594569 L43.9999979,25.8438276 C43.9999979,25.5735862 44.0056979,25.2239138 43.419498,25.522 L43.419498,25.522 Z M17.8910005,22.5909655 C18.6233005,22.9758103 28.7632995,28.2971034 29.1406994,28.4952414 C29.5183994,28.6933793 30.0073993,28.7892241 30.4999993,28.7892241 C30.9928992,28.7892241 31.4818992,28.6933793 31.8595991,28.4952414 C32.2369991,28.2971034 42.3766981,22.9758103 43.109298,22.5909655 C43.8418979,22.2067069 44.5354979,21 43.189098,21 L17.8109006,21 C16.4657007,21 17.1584006,22.2067069 17.8910005,22.5909655 L17.8910005,22.5909655 Z" id="Fill-59"></path>
        </g>
    </g>
</svg>