<?xml version="1.0" encoding="UTF-8" standalone="no"?>
<svg width="60px" height="60px" viewBox="0 0 60 60" version="1.1" xmlns="http://www.w3.org/2000/svg" xmlns:xlink="http://www.w3.org/1999/xlink">
    <!-- Generator: Sketch 3.8.3 (29802) - http://www.bohemiancoding.com/sketch -->
    <title>google</title>
    <desc>Created with Sketch.</desc>
    <defs></defs>
    <g id="Page-1" stroke="none" stroke-width="1" fill="none" fill-rule="evenodd">
        <g id="google" fill="#DD3732">
            <path d="M38.8151992,27.2085849 L38.8151992,23.1943805 L36.1648254,23.1943805 L36.1648254,27.2085849 L31.9800246,27.2085849 L31.9800246,29.7509144 L36.1648254,29.7509144 L36.1648254,33.7651188 L38.8151992,33.7651188 L38.8151992,29.7509144 L43,29.7509144 L43,27.2085849 L38.8151992,27.2085849 L38.8151992,27.2085849 Z M28.0044638,22.5842214 C28.6349738,24.7063975 27.6836291,26.9275906 26.1687312,27.3370395 C25.9957594,27.3825338 25.8172079,27.406619 25.6330767,27.406619 C24.2465127,27.406619 22.8711081,26.0605225 22.3633523,24.20596 C22.0787858,23.164943 22.1011048,22.2523805 22.4275193,21.377284 C22.748354,20.5155681 23.3258565,19.9348465 24.051222,19.7394886 C24.2241937,19.6913181 24.4055351,19.6672329 24.5868765,19.6672329 C26.2607968,19.6672329 27.3376855,20.3335908 28.0044638,22.5842214 L28.0044638,22.5842214 Z M29.681174,35.9301131 C29.8039281,37.814113 28.1244281,39.2003516 25.605178,39.3769766 C23.0468698,39.5562777 20.9377302,38.4510334 20.814976,36.5723858 C20.7563888,35.6678517 21.1692891,34.7820506 21.9811405,34.0782268 C22.8041513,33.3636984 23.9312577,32.924812 25.1587992,32.8364995 C25.3038723,32.8284711 25.4489454,32.8231188 25.5912287,32.8231188 C27.9598259,32.8231188 29.5639996,34.1585108 29.681174,35.9301131 L29.681174,35.9301131 Z M19.3251869,23.871443 C19.3251869,25.8705168 20.0198639,27.3129542 21.3924785,28.1612894 C22.516795,28.8544087 23.819663,28.9587781 24.4976007,28.9587781 C24.6622029,28.9587781 24.7933266,28.9534258 24.8853923,28.9453974 C24.8853923,28.9453974 24.6705725,30.2888178 25.7084031,31.6188575 L25.6609753,31.6161814 C23.8643009,31.6161814 18,31.9774598 18,36.6018233 C18,41.309147 23.3844437,41.5473231 24.4669122,41.5473231 C24.5506082,41.5473231 24.6008258,41.544647 24.6008258,41.544647 C24.6119853,41.5473231 24.6901016,41.5499992 24.8212253,41.5499992 C25.5159022,41.5499992 27.306997,41.4643629 28.9725477,40.6882834 C31.1319049,39.6847323 32.2283227,37.9345391 32.2283227,35.4912267 C32.2283227,33.1281984 30.5571923,31.7232268 29.3408102,30.6955905 C28.5959156,30.0693746 27.9542462,29.5287951 27.9542462,29.0042724 C27.9542462,28.4690451 28.4229439,28.0676247 29.0171856,27.5564826 C29.9768999,26.7322327 30.8836067,25.5574088 30.8836067,23.3388919 C30.8836067,21.3906647 30.6185694,20.082034 28.9948666,19.2497556 C29.1650485,19.1667954 29.7620801,19.1079204 30.0605959,19.0677784 C30.9394041,18.9527045 32.2283227,18.8215738 32.2283227,18.1311307 L32.2283227,18 L25.8116282,18 C25.7474612,18 19.3251869,18.2301477 19.3251869,23.871443 L19.3251869,23.871443 Z"></path>
        </g>
    </g>
</svg>