<?xml version="1.0" encoding="UTF-8" standalone="no"?>
<svg width="20px" height="20px" viewBox="0 0 20 20" version="1.1" xmlns="http://www.w3.org/2000/svg" xmlns:xlink="http://www.w3.org/1999/xlink">
    <!-- Generator: Sketch 3.8.3 (29802) - http://www.bohemiancoding.com/sketch -->
    <title>x</title>
    <desc>Created with Sketch.</desc>
    <defs></defs>
    <g id="Page-1" stroke="none" stroke-width="1" fill="none" fill-rule="evenodd">
        <g id="account" transform="translate(-12.000000, -50.000000)" fill="#FEA200">
            <path d="M20.5857864,60 L12.7928932,52.2071068 C12.4023689,51.8165825 12.4023689,51.1834175 12.7928932,50.7928932 C13.1834175,50.4023689 13.8165825,50.4023689 14.2071068,50.7928932 L22,58.5857864 L29.7928932,50.7928932 C30.1834175,50.4023689 30.8165825,50.4023689 31.2071068,50.7928932 C31.5976311,51.1834175 31.5976311,51.8165825 31.2071068,52.2071068 L23.4142136,60 L30.7751476,67.3609341 C31.1656719,67.7514584 31.1656719,68.3846233 30.7751476,68.7751476 C30.3846233,69.1656719 29.7514584,69.1656719 29.3609341,68.7751476 L22,61.4142136 L14.6390659,68.7751476 C14.2485416,69.1656719 13.6153767,69.1656719 13.2248524,68.7751476 C12.8343281,68.3846233 12.8343281,67.7514584 13.2248524,67.3609341 L20.5857864,60 Z" id="x"></path>
        </g>
    </g>
</svg>