<?xml version="1.0" encoding="UTF-8" standalone="no"?>
<svg width="37px" height="37px" viewBox="0 0 37 37" version="1.1" xmlns="http://www.w3.org/2000/svg" xmlns:xlink="http://www.w3.org/1999/xlink" xmlns:sketch="http://www.bohemiancoding.com/sketch/ns">
    <!-- Generator: Sketch 3.5.1 (25234) - http://www.bohemiancoding.com/sketch -->
    <title>delivery-white</title>
    <desc>Created with Sketch.</desc>
    <defs></defs>
    <g id="Page-1" stroke="none" stroke-width="1" fill="none" fill-rule="evenodd" sketch:type="MSPage">
        <g id="delivery-white" sketch:type="MSArtboardGroup" fill="#F2F5FA">
            <path d="M28.5351876,14.9310463 C28.6938346,15.3193815 28.5072774,15.7630991 28.1187645,15.9216023 C28.1187645,15.9216023 20.6883904,18.9536644 20.6851486,18.95493 C20.5237662,19.0246896 20.3567107,19.0715672 20.1875278,19.0715672 C19.7752582,19.0715672 19.3709413,18.8707426 19.1273989,18.5002776 L15.4406792,12.8895907 C15.0566237,12.3049364 15.219475,11.5199131 15.8044732,11.1360834 C16.389978,10.7532155 17.1749566,10.9149586 17.559012,11.4996635 L21.2330177,17.0910121 L27.5440996,14.5148173 C27.9310929,14.355403 28.3761353,14.5423061 28.5351876,14.9310463 L28.5351876,14.9310463 Z M20.1865653,4 C15.5169635,4 11.384087,6.32975811 8.88245851,9.88501729 C9.40018879,10.2225768 9.90485043,10.6854809 10.3929484,11.2805637 C12.259229,8.49164769 15.2768149,6.53493639 18.7682144,6.1143032 L20.1863627,8.51270719 L21.6045111,6.11425258 C26.9713595,6.76066794 31.2373029,11.023901 31.8844025,16.3875437 L29.4841824,17.8050609 L31.8844531,19.2226287 C31.4518715,22.8086165 29.396957,25.8959092 26.4816913,27.7462599 C26.6673873,28.1693231 26.771987,28.6019035 26.7904755,29.0478992 C26.8041014,29.3738152 26.7704674,29.6817598 26.7028449,29.9741123 C31.0422866,27.6437973 34,23.0639124 34,17.805314 C34,10.1928606 27.8034966,4 20.1865653,4 L20.1865653,4 Z M23.7115988,26.7360113 C20.5272613,24.1783448 19.636822,25.435587 18.1919792,26.8793779 C17.1832638,27.8878547 14.6306271,25.781955 12.4265377,23.5790602 C10.2222964,21.3758616 8.11556327,18.8251306 9.12417741,17.8168562 C10.5691215,16.3730147 11.8267487,15.4825926 9.26686856,12.3009877 C6.70784955,9.11821852 5.00193818,11.5617283 3.60232904,12.9606159 C1.98647974,14.5749584 3.51718036,20.5909395 9.46644367,26.5376166 C15.4165174,32.4834837 21.4359866,34.012272 23.0508735,32.3985369 C24.4503307,30.9995987 26.895987,29.2948927 23.7115988,26.7360113 L23.7115988,26.7360113 Z M6.97479393,14.0266014 C6.93183969,14.0441172 6.86877598,14.0699353 6.78859136,14.1027396 C6.63673192,14.1609063 6.45518948,14.226616 6.25323364,14.3144989 C6.15896732,14.3598579 6.0532533,14.4090136 5.95685953,14.4695597 C5.85692001,14.5292451 5.75748703,14.5968785 5.66798215,14.6805597 C5.57011942,14.7596847 5.4940884,14.8608817 5.40610312,14.9668879 C5.34065869,15.0838289 5.25626982,15.2032505 5.2106816,15.3468196 C5.14447737,15.4826939 5.12072084,15.639172 5.08116039,15.7931697 C5.05071758,15.9493947 5.04534831,16.1117453 5.02599864,16.270299 C5.0240738,16.5907983 5.03648393,16.8986417 5.0777666,17.1610249 C5.09939568,17.4277111 5.16711952,17.652987 5.19386461,17.8092121 C5.22658682,17.9658927 5.24532865,18.0553956 5.24532865,18.0553956 C5.24532865,18.0553956 5.19715709,17.9775362 5.11292018,17.8413075 C5.03298883,17.701029 4.89738919,17.5206564 4.77830262,17.2641962 C4.64108206,17.0148739 4.51308046,16.7081443 4.39130924,16.3629912 C4.34800043,16.1848967 4.28919162,16.0001704 4.25667202,15.8022819 C4.23372595,15.6022167 4.19588772,15.3958234 4.2110838,15.178546 C4.20449883,14.961623 4.24892202,14.7423713 4.28924227,14.520791 C4.35342036,14.3061966 4.4218027,14.0886155 4.52655431,13.8950807 C4.62223893,13.6972429 4.74269315,13.5181865 4.86304606,13.3620121 C4.98410812,13.201079 5.10907051,13.0694065 5.22684009,12.9468969 C5.46182206,12.7158498 5.66580404,12.5470194 5.784688,12.4433925 C5.85266511,12.3864407 5.88057523,12.3556615 5.91091673,12.3286283 C5.93776313,12.3035189 5.95204744,12.2901036 5.95204744,12.2901036 L7.04408803,13.9970877 C7.04403738,13.9972396 7.01997693,14.007415 6.97479393,14.0266014 L6.97479393,14.0266014 Z M23.36371,30.2421654 C23.2566283,30.3755085 23.0885598,30.5816992 22.8607199,30.8153787 C22.7392526,30.930396 22.6139863,31.055133 22.4581253,31.1728334 C22.3120403,31.2947861 22.1344995,31.4064116 21.9536662,31.5111523 C21.7673117,31.6135136 21.5690029,31.7013965 21.3595504,31.7667519 C21.1523265,31.8297785 20.9371501,31.8807567 20.7259247,31.8978675 L20.4116699,31.9203445 L20.1068366,31.903993 C19.9062484,31.9014618 19.7194886,31.8480537 19.5395671,31.8180844 C19.3601015,31.7847739 19.1973515,31.718153 19.0415411,31.6734522 C18.8857813,31.6314344 18.7460281,31.5546887 18.6167095,31.5036093 C18.3549318,31.3996787 18.1673616,31.2796496 18.0258861,31.2053339 C17.8869433,31.1288413 17.8075692,31.0851023 17.8075692,31.0851023 C17.8075692,31.0851023 17.897074,31.0988214 18.0537456,31.1228677 C18.209404,31.1437247 18.4366867,31.1928804 18.699832,31.1980947 C18.8323925,31.200879 18.968296,31.2239634 19.1189398,31.2099913 C19.267608,31.198449 19.4226587,31.2058907 19.5779119,31.1781995 C19.7320507,31.1474202 19.8919641,31.1386117 20.0403791,31.0825711 L20.2632549,31.014229 L20.4700734,30.9176388 C21.0161191,30.6532813 21.313253,30.1875929 21.4853739,29.7989033 C21.5705732,29.5983824 21.6316107,29.4214016 21.6776042,29.2828949 C21.7276499,29.1370983 21.7563199,29.0537715 21.7563199,29.0537715 L23.5250923,30.0437707 C23.525143,30.04372 23.4664355,30.1159096 23.36371,30.2421654 L23.36371,30.2421654 Z" id="Shape" sketch:type="MSShapeGroup"></path>
        </g>
    </g>
</svg>