<?xml version="1.0" encoding="UTF-8" standalone="no"?>
<svg width="25px" height="24px" viewBox="0 0 25 24" version="1.1" xmlns="http://www.w3.org/2000/svg" xmlns:xlink="http://www.w3.org/1999/xlink" xmlns:sketch="http://www.bohemiancoding.com/sketch/ns">
    <!-- Generator: Sketch 3.5.1 (25234) - http://www.bohemiancoding.com/sketch -->
    <title>google</title>
    <desc>Created with Sketch.</desc>
    <defs></defs>
    <g id="Page-1" stroke="none" stroke-width="1" fill="none" fill-rule="evenodd" sketch:type="MSPage">
        <g id="onboarding" sketch:type="MSArtboardGroup" transform="translate(-81.000000, -355.000000)" fill="#FEA200">
            <g id="Group" sketch:type="MSLayerGroup" transform="translate(81.000000, 355.000000)">
                <path d="M20.8151992,9.20858493 L20.8151992,5.19438051 L18.1648254,5.19438051 L18.1648254,9.20858493 L13.9800246,9.20858493 L13.9800246,11.7509144 L18.1648254,11.7509144 L18.1648254,15.7651188 L20.8151992,15.7651188 L20.8151992,11.7509144 L25,11.7509144 L25,9.20858493 L20.8151992,9.20858493 L20.8151992,9.20858493 Z M10.0044638,4.58422144 C10.6349738,6.70639751 9.68362906,8.92759062 8.16873117,9.33703947 C7.9957594,9.38253379 7.8172079,9.40661901 7.63307667,9.40661901 C6.24651267,9.40661901 4.87110814,8.06052247 4.3633523,6.20596003 C4.07878585,5.16494301 4.10110479,4.25238054 4.42751925,3.37728398 C4.74835398,2.5155681 5.32585649,1.93484653 6.05122196,1.73948858 C6.22419373,1.69131813 6.4055351,1.6672329 6.58687646,1.6672329 C8.26079679,1.6672329 9.33768553,2.33359083 10.0044638,4.58422144 L10.0044638,4.58422144 Z M11.681174,17.9301131 C11.8039281,19.814113 10.1244281,21.2003516 7.60517799,21.3769766 C5.04686977,21.5562777 2.93773016,20.4510334 2.81497601,18.5723858 C2.7563888,17.6678517 3.16928914,16.7820506 3.9811405,16.0782268 C4.80415132,15.3636984 5.93125767,14.924812 7.15879924,14.8364995 C7.30387234,14.8284711 7.44894543,14.8231188 7.59122866,14.8231188 C9.95982591,14.8231188 11.5639996,16.1585108 11.681174,17.9301131 L11.681174,17.9301131 Z M1.32518692,5.87144299 C1.32518692,7.87051679 2.01986385,9.31295424 3.39247852,10.1612894 C4.516795,10.8544087 5.81966298,10.9587781 6.49760071,10.9587781 C6.66220288,10.9587781 6.79332664,10.9534258 6.88539226,10.9453974 C6.88539226,10.9453974 6.67057248,12.2888178 7.70840308,13.6188575 L7.66097534,13.6161814 C5.86430086,13.6161814 -1.27009514e-13,13.9774598 -1.27009514e-13,18.6018233 C-1.27009514e-13,23.309147 5.3844437,23.5473231 6.46691217,23.5473231 C6.55060819,23.5473231 6.6008258,23.544647 6.6008258,23.544647 C6.61198527,23.5473231 6.69010155,23.5499992 6.82122531,23.5499992 C7.51590224,23.5499992 9.30699699,23.4643629 10.9725477,22.6882834 C13.1319049,21.6847323 14.2283227,19.9345391 14.2283227,17.4912267 C14.2283227,15.1281984 12.5571923,13.7232268 11.3408102,12.6955905 C10.5959156,12.0693746 9.95424618,11.5287951 9.95424618,11.0042724 C9.95424618,10.4690451 10.4229439,10.0676247 11.0171856,9.55648264 C11.9768999,8.73223267 12.8836067,7.55740885 12.8836067,5.33889187 C12.8836067,3.39066466 12.6185694,2.08203402 10.9948666,1.24975564 C11.1650485,1.16679542 11.7620801,1.10792042 12.0605959,1.06777837 C12.9394041,0.952704515 14.2283227,0.821573837 14.2283227,0.131130678 L14.2283227,0 L7.81162817,0 C7.74746122,0 1.32518692,0.23014772 1.32518692,5.87144299 L1.32518692,5.87144299 Z" id="google" sketch:type="MSShapeGroup"></path>
            </g>
        </g>
    </g>
</svg>