<?xml version="1.0" encoding="UTF-8" standalone="no"?>
<svg width="19px" height="19px" viewBox="0 0 19 19" version="1.1" xmlns="http://www.w3.org/2000/svg" xmlns:xlink="http://www.w3.org/1999/xlink" xmlns:sketch="http://www.bohemiancoding.com/sketch/ns">
    <!-- Generator: Sketch 3.5.1 (25234) - http://www.bohemiancoding.com/sketch -->
    <title>steering wheel</title>
    <desc>Created with Sketch.</desc>
    <defs></defs>
    <g id="Page-1" stroke="none" stroke-width="1" fill="none" fill-rule="evenodd" sketch:type="MSPage">
        <g id="onboarding-copy-12" sketch:type="MSArtboardGroup" transform="translate(-224.000000, -336.000000)" fill="#FFFFFF">
            <g id="Group-Copy-4" sketch:type="MSLayerGroup" transform="translate(213.000000, 325.000000)">
                <path d="M20.5,11 C15.253625,11 11,15.253625 11,20.5 C11,25.746375 15.253625,30 20.5,30 C25.746375,30 30,25.746375 30,20.5 C30,15.253625 25.746375,11 20.5,11 L20.5,11 Z M20.5,13.375 C23.5916562,13.375 26.2029688,15.3664375 27.1891875,18.125 L13.8108125,18.125 C14.7970312,15.3664375 17.4083438,13.375 20.5,13.375 L20.5,13.375 Z M20.5,21.6875 C19.8439062,21.6875 19.3125,21.1560938 19.3125,20.5 C19.3125,19.8439062 19.8439062,19.3125 20.5,19.3125 C21.1560938,19.3125 21.6875,19.8439062 21.6875,20.5 C21.6875,21.1560938 21.1560938,21.6875 20.5,21.6875 L20.5,21.6875 Z M13.375,20.5 C16.6198438,20.5 19.2477813,23.6266875 19.303,27.5044688 C15.94475,26.929125 13.375,24.0185625 13.375,20.5 L13.375,20.5 Z M21.697,27.5044688 C21.7522188,23.6266875 24.3801562,20.5 27.625,20.5 C27.625,24.0185625 25.05525,26.929125 21.697,27.5044688 L21.697,27.5044688 Z" id="steering-wheel" sketch:type="MSShapeGroup"></path>
            </g>
        </g>
    </g>
</svg>