<?xml version="1.0" encoding="UTF-8" standalone="no"?>
<svg width="29px" height="29px" viewBox="0 0 29 29" version="1.1" xmlns="http://www.w3.org/2000/svg" xmlns:xlink="http://www.w3.org/1999/xlink" xmlns:sketch="http://www.bohemiancoding.com/sketch/ns">
    <!-- Generator: Sketch 3.5.1 (25234) - http://www.bohemiancoding.com/sketch -->
    <title>steering-wheel-large</title>
    <desc>Created with Sketch.</desc>
    <defs></defs>
    <g id="Page-1" stroke="none" stroke-width="1" fill="none" fill-rule="evenodd" sketch:type="MSPage">
        <g id="driving-picking-up" sketch:type="MSArtboardGroup" transform="translate(-30.000000, -336.000000)" fill="#FFFFFF">
            <path d="M44.3658537,336 C36.432311,336 30,342.432311 30,350.365854 C30,358.299396 36.432311,364.731707 44.3658537,364.731707 C52.2993963,364.731707 58.7317073,358.299396 58.7317073,350.365854 C58.7317073,342.432311 52.2993963,336 44.3658537,336 L44.3658537,336 Z M44.3658537,339.591463 C49.0410412,339.591463 52.9898552,342.602905 54.4812104,346.77439 L34.250497,346.77439 C35.7418521,342.602905 39.6906662,339.591463 44.3658537,339.591463 L44.3658537,339.591463 Z M44.3658537,352.161585 C43.3737119,352.161585 42.570122,351.357995 42.570122,350.365854 C42.570122,349.373712 43.3737119,348.570122 44.3658537,348.570122 C45.3579954,348.570122 46.1615854,349.373712 46.1615854,350.365854 C46.1615854,351.357995 45.3579954,352.161585 44.3658537,352.161585 L44.3658537,352.161585 Z M33.5914634,350.365854 C38.4983003,350.365854 42.4722546,355.094015 42.5557561,360.957977 C37.4774268,360.087945 33.5914634,355.686607 33.5914634,350.365854 L33.5914634,350.365854 Z M46.1759512,360.957977 C46.2594527,355.094015 50.233407,350.365854 55.1402439,350.365854 C55.1402439,355.686607 51.2542805,360.087945 46.1759512,360.957977 L46.1759512,360.957977 Z" id="steering-wheel-large" sketch:type="MSShapeGroup"></path>
        </g>
    </g>
</svg>